# xmcd
#
# Track frame offsets:
#	150
#	17250
#	32248
#	49940
#	65087
#	77240
#	95651
#	113600
#	133535
#	151010
#	164214
#	182425
#	205628
#	224008
#	241559
#	262207
#	283504
#	306725
#
# Disc length: 4336 seconds
#
# Revision: 2
# Processed by: cddbd v1.5.2PL0 Copyright (c) Steve Scherf et al.
# Submitted via: audiograbber 1.83.01
#
DISCID=0310ee12
DTITLE=Alan Jackson - 34 Number Ones - CD 2
DYEAR=2010
DGENRE=Country
TTITLE0=As She's Walking Away
TTITLE1=Look At Me
TTITLE2=Ill Try
TTITLE3=Home
TTITLE4=Little Bitty
TTITLE5=Whos Cheatin Who
TTITLE6=There Goes
TTITLE7=Between The Devil And Me
TTITLE8=Right On The Money
TTITLE9=It Must Be Love
TTITLE10=Where I Come From
TTITLE11=Where Were You (When The World Stopped Turning)
TTITLE12=Drive (For Daddy Gene)
TTITLE13=Its Five O Clock Somewhere (Feat. Jimmy Buffet)
TTITLE14=Remember When
TTITLE15=Small Town Southern Man
TTITLE16=Good Time
TTITLE17=Country Boy
EXTD=
EXTT0=
EXTT1=
EXTT2=
EXTT3=
EXTT4=
EXTT5=
EXTT6=
EXTT7=
EXTT8=
EXTT9=
EXTT10=
EXTT11=
EXTT12=
EXTT13=
EXTT14=
EXTT15=
EXTT16=
EXTT17=
PLAYORDER=
